PathFileType	4	(X/Y/Z)	/Users/itak/Documents/Research/Walk-IL/dataset/trc/00133_00007.trc
DataRate	CameraRate	NumFrames	NumMarkers	Units	OrigDataRate	OrigDataStartFrame	OrigNumFrames
100.000000	100.000000	4	53	mm	100.000000	183	732
Frame#	Time	RPSI			LPSI			L3			STRN			T10			C7			CLAV			RBAK			LBAK			LSHO			LUPA			LAEL			LAOL			LWTS			LWPS			LFRA			LIFD			LHPS			LHTS			RSHO			RUPA			RAEL			RAOL			RWTS			RWPS			RFRA			RIFD			RHTS			RHPS			RBHD			LFHD			RFHD			LBHD			LHIP			RHIP			RASI			LASI			LKNE			LTHI			LANK			LTIP			LTOE			LMT1			LMT5			LHEE			RKNE			RTHI			RANK			RTIP			RTOE			RMT1			RMT5			RHEE			
		X1	Y1	Z1	X2	Y2	Z2	X3	Y3	Z3	X4	Y4	Z4	X5	Y5	Z5	X6	Y6	Z6	X7	Y7	Z7	X8	Y8	Z8	X9	Y9	Z9	X10	Y10	Z10	X11	Y11	Z11	X12	Y12	Z12	X13	Y13	Z13	X14	Y14	Z14	X15	Y15	Z15	X16	Y16	Z16	X17	Y17	Z17	X18	Y18	Z18	X19	Y19	Z19	X20	Y20	Z20	X21	Y21	Z21	X22	Y22	Z22	X23	Y23	Z23	X24	Y24	Z24	X25	Y25	Z25	X26	Y26	Z26	X27	Y27	Z27	X28	Y28	Z28	X29	Y29	Z29	X30	Y30	Z30	X31	Y31	Z31	X32	Y32	Z32	X33	Y33	Z33	X34	Y34	Z34	X35	Y35	Z35	X36	Y36	Z36	X37	Y37	Z37	X38	Y38	Z38	X39	Y39	Z39	X40	Y40	Z40	X41	Y41	Z41	X42	Y42	Z42	X43	Y43	Z43	X44	Y44	Z44	X45	Y45	Z45	X46	Y46	Z46	X47	Y47	Z47	X48	Y48	Z48	X49	Y49	Z49	X50	Y50	Z50	X51	Y51	Z51	X52	Y52	Z52	X53	Y53	Z53	

184	1.83	-489.2341613769531	1086.865356445312	779.0726928710938	-613.1370239257812	1096.642944335938	833.0745239257812	-547.3494262695312	1123.713134765625	812.7183227539062	-629.1373901367188	1320.18017578125	604.9425659179688	-522.942626953125	1275.40966796875	834.7048950195312	-536.419921875	1567.963745117188	799.6587524414062	-613.1912231445312	1455.759765625	635.8694458007812	-442.499267578125	1379.468627929688	817.025634765625	-624.5325927734375	1554.2919921875	851.2101440429688	-726.1027221679688	1544.402587890625	806.1256103515625	-782.9598388671875	1420.395629882812	867.1113891601562	-820.8930053710938	1206.95751953125	893.2986450195312	-736.95654296875	1189.057250976562	917.483154296875	-865.0006103515625	944.1808471679688	810.0274047851562	-838.368408203125	921.49658203125	891.71728515625	-842.4917602539062	1091.627685546875	893.17578125	-859.5695190429688	751.2503662109375	799.0697631835938	-860.5668334960938	847.3199462890625	874.3927612304688	-888.0718383789062	854.8023071289062	810.413330078125	-398.1512145996094	1535.84619140625	672.1685180664062	-336.5543212890625	1459.717407226562	663.2252197265625	-321.5968322753906	1164.357788085938	669.9920654296875	-402.8277893066406	1166.673583984375	721.2406005859375	-415.0570983886719	931.9263305664062	538.0177001953125	-355.075927734375	908.3905639648438	590.537109375	-323.2802734375	1090.99609375	640.0955810546875	-456.5510864257812	742.1072387695312	516.5023193359375	-431.0903625488281	826.042724609375	503.8282470703125	-375.7266235351562	811.8926391601562	550.8298950195312	-469.4783020019531	1728.744140625	726.9391479492188	-628.7208251953125	1804.726440429688	593.36669921875	-504.8143920898438	1783.3740234375	560.8233642578125	-594.4564819335938	1755.270141601562	768.0277709960938	-759.4042358398438	1018.097778320312	787.025146484375	-433.2913818359375	977.2286987304688	621.060546875	-509.8934326171875	1051.169189453125	562.4749755859375	-750.0118408203125	1075.639282226562	673.6242065429688	-838.4010620117188	558.019775390625	594.3873901367188	-826.3837890625	683.5452880859375	679.1322021484375	-911.513916015625	34.50106811523438	589.5922241210938	-887.113525390625	296.60595703125	638.2017822265625	-871.9873046875	58.01097869873047	361.6575012207031	-829.9288940429688	53.03053283691406	435.1508178710938	-941.820068359375	40.83252716064453	468.2110290527344	-842.7905883789062	32.42741394042969	653.4585571289062	-479.7860717773438	491.5178527832031	735.0572509765625	-459.5999450683594	763.0772094726562	644.9799194335938	-343.5248413085938	89.64132690429688	1054.473510742188	-434.4517517089844	377.4059753417969	809.8904418945312	-545.4254760742188	40.8659782409668	944.5126953125	-525.585693359375	46.17170715332031	1013.650451660156	-423.2362976074219	46.47048568725586	953.625244140625	-340.9330444335938	126.4239120483398	1120.536865234375	
185	1.84	-496.8359069824219	1087.365356445312	771.1104736328125	-621.4119262695312	1098.030883789062	823.3492431640625	-555.3226318359375	1124.746459960938	803.8583374023438	-634.993408203125	1321.482055664062	595.498046875	-531.2726440429688	1276.244506835938	826.98681640625	-544.460205078125	1568.851806640625	792.0745849609375	-619.3273315429688	1456.959716796875	627.0489501953125	-450.9388732910156	1380.219970703125	810.0457153320312	-633.1866455078125	1555.074829101562	842.5552978515625	-734.22607421875	1545.341186523438	796.3604125976562	-791.693359375	1421.171020507812	856.5081787109375	-829.4498901367188	1207.571899414062	881.919677734375	-745.7014770507812	1189.8310546875	906.8693237304688	-871.9465942382812	944.3909912109375	798.8653564453125	-845.9995727539062	922.074462890625	880.9180297851562	-850.697265625	1092.1806640625	881.7798461914062	-865.9195556640625	751.4702758789062	788.6578369140625	-867.8418579101562	847.7765502929688	863.5852661132812	-894.8184204101562	854.9793701171875	799.3441772460938	-404.6631774902344	1536.988647460938	666.2113037109375	-342.9022216796875	1460.933837890625	658.1285400390625	-327.2043762207031	1165.965209960938	666.4978637695312	-409.6664733886719	1168.0791015625	715.7969360351562	-415.6598815917969	931.5321044921875	534.6563720703125	-356.8559875488281	909.094970703125	588.9880981445312	-327.7725830078125	1092.407592773438	637.209716796875	-454.6927795410156	741.1251220703125	513.9589233398438	-429.7080993652344	825.1773681640625	501.150390625	-375.5381469726562	812.0341186523438	549.7462158203125	-476.5528869628906	1729.999267578125	720.3221435546875	-633.9326171875	1805.642700195312	584.318115234375	-509.6170959472656	1784.162963867188	553.5482788085938	-602.1636352539062	1756.717407226562	759.423583984375	-767.0250244140625	1019.931823730469	775.859619140625	-439.8716735839844	977.4422607421875	613.5615234375	-515.3506469726562	1051.921020507812	554.435791015625	-756.8728637695312	1077.082763671875	662.2639770507812	-841.7564086914062	558.2905883789062	582.6710205078125	-831.9996948242188	684.94775390625	666.5581665039062	-912.7489624023438	33.90770721435547	587.7218017578125	-891.7457885742188	297.2578735351562	629.4532470703125	-868.3121948242188	50.98080444335938	359.1641540527344	-827.9371337890625	48.78796768188477	433.9984436035156	-941.199951171875	38.02216720581055	465.3677368164062	-845.77197265625	33.55977249145508	653.4363403320312	-487.3590087890625	490.247314453125	721.1619262695312	-466.5019226074219	763.0281982421875	635.3937377929688	-345.2785034179688	96.86259460449219	1050.132568359375	-440.3349914550781	378.3039245605469	798.3433227539062	-544.591796875	41.02766799926758	943.3795776367188	-526.3027954101562	48.3004264831543	1012.153564453125	-423.7850036621094	45.84143829345703	952.8441162109375	-344.4006652832031	137.0794525146484	1114.02734375	
186	1.85	-504.1682739257812	1088.043334960938	763.2962646484375	-629.406005859375	1099.675537109375	813.6632080078125	-563.0430908203125	1126.030517578125	795.0730590820312	-640.5804443359375	1322.986206054688	586.0382690429688	-539.3702392578125	1277.368041992188	819.3681640625	-552.4158935546875	1569.98583984375	784.4005737304688	-625.2725219726562	1458.378784179688	618.17724609375	-459.1845092773438	1381.292724609375	803.0368041992188	-641.7667236328125	1556.1171875	833.7732543945312	-742.1705322265625	1546.532470703125	786.4422607421875	-800.3260498046875	1422.228393554688	845.734619140625	-837.9467163085938	1208.472534179688	870.3255004882812	-754.4042358398438	1190.89013671875	896.0950927734375	-878.81689453125	944.8916015625	787.439208984375	-853.6331787109375	922.9583129882812	869.8923950195312	-858.870361328125	1093.03369140625	870.1482543945312	-872.1924438476562	751.9717407226562	777.9927368164062	-875.0908203125	848.5046997070312	852.5438232421875	-901.49951171875	855.4508056640625	788.0097045898438	-411.1073303222656	1538.453369140625	660.2113037109375	-349.1427001953125	1462.490234375	653.0016479492188	-332.8455810546875	1167.913452148438	663.0084228515625	-416.5237731933594	1169.858276367188	710.3001708984375	-416.1708984375	931.4840087890625	531.4240112304688	-358.7083129882812	910.159423828125	587.6278076171875	-332.2658081054688	1094.177612304688	634.3817138671875	-452.7877502441406	740.512451171875	511.6080017089844	-428.2166442871094	824.670166015625	498.6683044433594	-375.3697814941406	812.5530395507812	548.9295043945312	-483.5735168457031	1731.449340820312	713.6254272460938	-639.0060424804688	1806.736206054688	575.158203125	-514.3045043945312	1785.114379882812	546.2084350585938	-609.7918090820312	1758.373291015625	750.7420654296875	-774.141845703125	1022.095458984375	764.9252319335938	-446.1533813476562	977.8109130859375	606.3796997070312	-520.5048828125	1052.871337890625	546.6023559570312	-763.4426879882812	1078.74267578125	650.9154663085938	-845.3161010742188	558.687255859375	571.8074340820312	-837.7275390625	686.6146240234375	654.6044921875	-914.0230712890625	33.45561981201172	586.448974609375	-896.4481201171875	297.9686279296875	621.6673583984375	-866.03759765625	45.73332595825195	357.5376892089844	-826.9749145507812	45.87990188598633	433.3123168945312	-941.3700561523438	35.97344207763672	463.4957885742188	-848.5691528320312	34.44046401977539	653.5669555664062	-495.3448486328125	489.0072021484375	706.1541748046875	-473.4632263183594	763.0850830078125	625.5365600585938	-347.636962890625	104.7343444824219	1044.846069335938	-446.8589782714844	379.2571105957031	785.5343017578125	-543.6891479492188	41.18206787109375	941.6519775390625	-527.3878173828125	50.71588897705078	1010.076782226562	-424.5505981445312	45.22401428222656	951.9138793945312	-348.7283935546875	148.4570007324219	1106.207153320312	
187	1.86	-511.2647705078125	1088.8583984375	755.7158203125	-637.1530151367188	1101.5185546875	804.0662841796875	-570.5342407226562	1127.515380859375	786.4356689453125	-645.846923828125	1324.6298828125	576.5787963867188	-547.2567749023438	1278.7431640625	811.8158569335938	-560.2701416015625	1571.330444335938	776.6466064453125	-630.9886474609375	1459.954833984375	609.265380859375	-467.2083740234375	1382.661254882812	796.0443725585938	-650.2667236328125	1557.3740234375	824.85400390625	-749.9338989257812	1547.9169921875	776.3511352539062	-808.8512573242188	1423.515014648438	834.7716064453125	-846.390380859375	1209.614135742188	858.5298461914062	-763.086181640625	1192.188354492188	885.197021484375	-885.6085205078125	945.644775390625	775.726806640625	-861.2896118164062	924.1105346679688	858.6267700195312	-867.0247192382812	1094.137939453125	858.2847900390625	-878.3665771484375	752.703369140625	767.0306396484375	-882.334228515625	849.466064453125	841.2323608398438	-908.1016845703125	856.1753540039062	776.374755859375	-417.4491882324219	1540.197143554688	654.182861328125	-355.2508850097656	1464.346923828125	647.85205078125	-338.4790649414062	1170.1455078125	659.49951171875	-423.3252258300781	1171.961791992188	704.779052734375	-416.6282958984375	931.7621459960938	528.3084716796875	-360.6540222167969	911.5454711914062	586.4009399414062	-336.7331237792969	1096.256103515625	631.5811157226562	-450.9430236816406	740.2509765625	509.4704895019531	-426.7127990722656	824.4966430664062	496.3776550292969	-375.2969055175781	813.4141235351562	548.3330688476562	-490.5183410644531	1733.055908203125	706.8482666015625	-643.934326171875	1807.96337890625	565.910888671875	-518.869873046875	1786.201049804688	538.8173217773438	-617.3101806640625	1760.1767578125	741.9891357421875	-780.8385620117188	1024.489379882812	754.1620483398438	-452.0816955566406	978.3228149414062	599.6219482421875	-525.2660522460938	1053.976440429688	539.0490112304688	-769.65087890625	1080.5380859375	639.5926513671875	-849.1126098632812	559.0892333984375	562.0811767578125	-843.4720458984375	688.3489379882812	643.54736328125	-915.2286376953125	33.09796142578125	585.658203125	-900.94287109375	298.6204223632812	615.0969848632812	-864.8111572265625	42.12216186523438	356.571533203125	-826.7532958984375	44.12129592895508	432.9795837402344	-942.03759765625	34.56919860839844	462.3850402832031	-851.019287109375	35.07243728637695	653.7830200195312	-503.7177124023438	487.8537902832031	690.1371459960938	-480.420166015625	763.2484130859375	615.4669799804688	-350.7306518554688	113.1606063842773	1038.498291015625	-454.0545043945312	380.2428588867188	771.49560546875	-542.8115844726562	41.33580017089844	939.0515747070312	-528.95263671875	53.4249267578125	1007.140930175781	-425.5990295410156	44.77896118164062	950.6250610351562	-354.0000305175781	160.3376007080078	1097.016967773438	
